$MeshFormat
4.1 0 8
$EndMeshFormat
$PhysicalNames
3
1 101 "Borde Inferior"
1 102 "Carga"
2 103 "Mi superficie"
$EndPhysicalNames
$Entities
7 6 1 0
1 0 0 0 0 
2 40 0 0 0 
3 40 20 0 0 
4 0 20 0 0 
5 20 10 0 0 
6 23 10 0 0 
7 17 10 0 0 
1 0 0 0 40 0 0 2 101 102 2 1 -2 
2 40 0 0 40 20 0 0 2 2 -3 
3 0 20 0 40 20 0 0 2 3 -4 
4 0 0 0 0 20 0 0 2 4 -1 
5 17 10 0 23 12.95442325903662 0 0 2 6 -7 
6 17 7.045576740963376 0 23 10 0 0 2 7 -6 
1 0 0 0 40 20 0 1 103 6 1 2 3 4 -6 -5 
$EndEntities
$Nodes
13 732 1 732
0 1 0 1
1
0 0 0
0 2 0 1
2
40 0 0
0 3 0 1
3
40 20 0
0 4 0 1
4
0 20 0
0 6 0 1
5
23 10 0
0 7 0 1
6
17 10 0
1 1 0 19
7
8
9
10
11
12
13
14
15
16
17
18
19
20
21
22
23
24
25
1.999999999998196 0 0
3.999999999996739 0 0
5.999999999993115 0 0
7.999999999987272 0 0
9.999999999981428 0 0
11.99999999997558 0 0
13.99999999996974 0 0
15.99999999996404 0 0
17.99999999996652 0 0
19.99999999996955 0 0
21.99999999997259 0 0
23.99999999997562 0 0
25.99999999997866 0 0
27.99999999998169 0 0
29.99999999998473 0 0
31.99999999998777 0 0
33.99999999999083 0 0
35.99999999999388 0 0
37.99999999999694 0 0
1 2 0 9
26
27
28
29
30
31
32
33
34
40 1.99999999999837 0
40 3.999999999993636 0
40 5.999999999987792 0
40 7.999999999982018 0
40 9.999999999984777 0
40 11.99999999998781 0
40 13.99999999999085 0
40 15.99999999999388 0
40 17.99999999999694 0
1 3 0 19
35
36
37
38
39
40
41
42
43
44
45
46
47
48
49
50
51
52
53
38.00000000000001 20 0
36.00000000000001 20 0
34.00000000000001 20 0
32.00000000000001 20 0
30.00000000000002 20 0
28.00000000000003 20 0
26.00000000000003 20 0
24.00000000000004 20 0
22.00000000000004 20 0
20.00000000000004 20 0
18.00000000000005 20 0
16.00000000000005 20 0
14.00000000000006 20 0
12.00000000000006 20 0
10.00000000000007 20 0
8.000000000000071 20 0
6.000000000000057 20 0
4.000000000000043 20 0
2.000000000000014 20 0
1 4 0 9
54
55
56
57
58
59
60
61
62
0 18 0
0 16.00000000000001 0
0 14.00000000000001 0
0 12.00000000000002 0
0 10.00000000000002 0
0 8.000000000000027 0
0 6.00000000000003 0
0 4.000000000000036 0
0 2.000000000000021 0
1 5 0 31
63
64
65
66
67
68
69
70
71
72
73
74
75
76
77
78
79
80
81
82
83
84
85
86
87
88
89
90
91
92
93
22.98555417990785 10.29405142209273 0
22.94235584072723 10.58527096847389 0
22.87082100657544 10.87085403381117 0
22.77163859666669 11.1480502991888 0
22.64576379119322 11.41419021394255 0
22.49440883450145 11.66671070265993 0
22.31903135646534 11.90317985690542 0
22.12132033893374 12.12132034818555 0
21.90317984674414 12.31903136480449 0
21.6667106922894 12.49440884143081 0
21.41419020143163 12.64576379788045 0
21.14805028664964 12.77163860186058 0
20.87085401886868 12.87082101110819 0
20.58527095117328 12.94235584416853 0
20.2940514046759 12.98555418162326 0
19.99999998379313 13 0
19.70594856465377 12.9855541786025 0
19.4147290219466 12.94235583882174 0
19.12914595774701 12.87082100401464 0
18.85194969407714 12.77163859387735 0
18.58580978160192 12.64576378881169 0
18.3332892940895 12.49440883232948 0
18.09682014246337 12.31903135594732 0
17.87867965183248 12.12132033895177 0
17.68096863609632 11.90317984784177 0
17.50559116038493 11.66671069500685 0
17.35423620516073 11.41419020712128 0
17.22836140140269 11.14805029452788 0
17.12917899224107 10.87085402990971 0
17.05764415866751 10.58527096543105 0
17.01444581991618 10.29405142030613 0
1 6 0 31
94
95
96
97
98
99
100
101
102
103
104
105
106
107
108
109
110
111
112
113
114
115
116
117
118
119
120
121
122
123
124
17.01444582008718 9.705948577957704 0
17.057644159253 9.414729031625525 0
17.12917899338042 9.129145966334335 0
17.22836140325573 8.851949700998494 0
17.35423620868732 8.585809786280942 0
17.50559116532961 8.333289297592923 0
17.68096864330959 8.096820143368827 0
17.87867966079266 7.878679652088058 0
18.09682015307784 7.680968635341612 0
18.33328930737964 7.50559115879033 0
18.58580979845743 7.354236202178852 0
18.85194971291695 7.228361398318944 0
19.12914598072825 7.129178989014076 0
19.41472904832054 7.057644155932151 0
19.70594859480021 7.01444581842834 0
20.00000001561595 7 0
20.29405143469079 7.014445821332949 0
20.58527097738272 7.057644161044847 0
20.87085404135804 7.129178995713881 0
21.14805030543405 7.228361405920177 0
21.4141902179245 7.354236210935175 0
21.66671070553453 7.505591167419302 0
21.9031798571405 7.680968643727588 0
22.12132034804307 7.878679660923784 0
22.31903136412875 8.09682015243248 0
22.49440883978401 8.333289305245996 0
22.64576379495873 8.585809793102211 0
22.77163859867489 8.851949705659418 0
22.87082100780307 9.129145970235797 0
22.94235584135226 9.414729034668367 0
22.98555418008878 9.705948579744309 0
2 1 0 608
125
126
127
128
129
130
131
132
133
134
135
136
137
138
139
140
141
142
143
144
145
146
147
148
149
150
151
152
153
154
155
156
157
158
159
160
161
162
163
164
165
166
167
168
169
170
171
172
173
174
175
176
177
178
179
180
181
182
183
184
185
186
187
188
189
190
191
192
193
194
195
196
197
198
199
200
201
202
203
204
205
206
207
208
209
210
211
212
213
214
215
216
217
218
219
220
221
222
223
224
225
226
227
228
229
230
231
232
233
234
235
236
237
238
239
240
241
242
243
244
245
246
247
248
249
250
251
252
253
254
255
256
257
258
259
260
261
262
263
264
265
266
267
268
269
270
271
272
273
274
275
276
277
278
279
280
281
282
283
284
285
286
287
288
289
290
291
292
293
294
295
296
297
298
299
300
301
302
303
304
305
306
307
308
309
310
311
312
313
314
315
316
317
318
319
320
321
322
323
324
325
326
327
328
329
330
331
332
333
334
335
336
337
338
339
340
341
342
343
344
345
346
347
348
349
350
351
352
353
354
355
356
357
358
359
360
361
362
363
364
365
366
367
368
369
370
371
372
373
374
375
376
377
378
379
380
381
382
383
384
385
386
387
388
389
390
391
392
393
394
395
396
397
398
399
400
401
402
403
404
405
406
407
408
409
410
411
412
413
414
415
416
417
418
419
420
421
422
423
424
425
426
427
428
429
430
431
432
433
434
435
436
437
438
439
440
441
442
443
444
445
446
447
448
449
450
451
452
453
454
455
456
457
458
459
460
461
462
463
464
465
466
467
468
469
470
471
472
473
474
475
476
477
478
479
480
481
482
483
484
485
486
487
488
489
490
491
492
493
494
495
496
497
498
499
500
501
502
503
504
505
506
507
508
509
510
511
512
513
514
515
516
517
518
519
520
521
522
523
524
525
526
527
528
529
530
531
532
533
534
535
536
537
538
539
540
541
542
543
544
545
546
547
548
549
550
551
552
553
554
555
556
557
558
559
560
561
562
563
564
565
566
567
568
569
570
571
572
573
574
575
576
577
578
579
580
581
582
583
584
585
586
587
588
589
590
591
592
593
594
595
596
597
598
599
600
601
602
603
604
605
606
607
608
609
610
611
612
613
614
615
616
617
618
619
620
621
622
623
624
625
626
627
628
629
630
631
632
633
634
635
636
637
638
639
640
641
642
643
644
645
646
647
648
649
650
651
652
653
654
655
656
657
658
659
660
661
662
663
664
665
666
667
668
669
670
671
672
673
674
675
676
677
678
679
680
681
682
683
684
685
686
687
688
689
690
691
692
693
694
695
696
697
698
699
700
701
702
703
704
705
706
707
708
709
710
711
712
713
714
715
716
717
718
719
720
721
722
723
724
725
726
727
728
729
730
731
732
38.35355029746892 9.114198118597365 0
1.758390395630812 11.02495675280998 0
29.01308841742654 1.884135998076489 0
11.15924987118126 18.19528412398448 0
10.72845984196992 1.503222788263928 0
29.05370019383026 18.4799577683152 0
20.16493229590168 6.739444810869136 0
19.83502708369537 13.26099480081965 0
24.99999999997715 1.732050807571505 0
21.10263491514067 6.93371255037245 0
21.67573661558574 7.204229132705455 0
14.98048410733666 18.28654365317747 0
18.89668713579834 13.06786824400677 0
18.32539402799809 12.79408299280064 0
14.99999999996689 1.732050807563877 0
18.90387090260991 6.933457371445492 0
18.29302627331916 7.172889234624927 0
24.78430797047174 18.36763357936628 0
21.09534663854345 13.0612888155666 0
21.67630614169985 12.79662586389389 0
32.99999999998931 1.732050807571516 0
6.855331851048557 18.36359188214003 0
7.066911650787824 1.61344545389975 0
32.9132398569113 18.3958676832824 0
38.48283434729877 12.96169525326798 0
1.894933781653553 6.921037559173175 0
19.10671567320051 1.564697306731402 0
21.04590906067101 18.34837251028489 0
38.45643483099168 5.134211245069936 0
1.507999647917287 14.92378956724713 0
1.65180946619276 2.973372557809641 0
38.37279225398213 17.05214356978932 0
3.019289609577038 18.32696373440696 0
36.9917618446128 1.691464189379517 0
17.37956201258227 1.576083399909562 0
15.99719995271033 3.060789977597463 0
18.21409079271372 2.838289431434312 0
19.47627234870649 3.098350105973991 0
18.65178825432308 4.064094524878671 0
19.90272483255177 4.354103991608038 0
20.59424881698991 3.354825367128457 0
21.00663990455478 4.397103005412315 0
21.68947883797212 3.5642418720945 0
21.95834269752692 4.569391874827716 0
19.17086633768407 5.048180741612482 0
18.32619581714378 5.052850578202315 0
19.52292796397374 6.783841462476667 0
21.28764588083971 5.309674755920749 0
22.21838621874319 5.55465148718702 0
22.84439751179637 4.830317985117873 0
23.07463562805892 5.695012987259478 0
22.40836065960743 7.817470040159746 0
23.69447494520621 5.086522455511935 0
23.95782443908748 6.057164777678534 0
24.55095123524092 5.370597924024855 0
24.83080228579814 6.228747129562501 0
22.93918512203671 8.609868971673594 0
25.44889983414706 5.58727906425016 0
25.68822831615055 6.542375825079112 0
26.40390845539246 5.837416126791433 0
26.66874304798987 6.900754656314137 0
27.48915996456874 6.185148336401142 0
27.78883261165937 7.304916358963796 0
26.76177414932765 8.121048472793047 0
27.98348040979494 8.492607298879028 0
22.93918511997455 11.3901310352851 0
23.25538930980548 9.840209939293326 0
27.09590662847109 9.315301725450547 0
28.24679176819291 9.642237402924371 0
27.16283202577512 10.60206514130342 0
23.22783149145297 10.47875145569628 0
29.01442050979719 7.704495164055158 0
22.61150838974144 11.93682663062054 0
22.1901416933567 12.42284652750956 0
28.50963522226331 10.90482821459698 0
27.48846830508166 11.86218865313107 0
28.7699116662676 12.28606699122731 0
29.85609020743816 11.28683801531082 0
25.07126384177385 7.106795819348562 0
27.69000565436767 13.16424703717917 0
26.37956588117553 12.59454176769109 0
30.12538107090094 12.7622737649994 0
31.2662087254718 11.75289231626255 0
26.22205464094928 9.977568815309144 0
31.57444483158787 13.2933658190442 0
32.76060583503464 12.26238898492707 0
32.41993792942529 10.68350392046456 0
26.63982546972627 13.95503123475208 0
25.51950297023643 13.4255333156971 0
25.2458878778552 12.42091524783636 0
24.42121330006798 12.99109679922073 0
24.65944929320064 14.02370250342563 0
23.75890834046397 13.65780674275993 0
23.86392668063964 14.54412133864154 0
22.95348995890316 14.08699128966198 0
23.11644969459356 15.05536172658661 0
22.27555504864284 14.67899194283667 0
33.09802360552887 13.8624125151401 0
33.94744252007148 11.18457377603149 0
33.59425596826087 9.591055618102995 0
24.67956533056186 15.13586155134638 0
26.04834150150613 4.893363272966457 0
23.25594853458487 6.484714814025914 0
24.41013506317393 12.10046012752758 0
27.88282684633842 14.53627123304143 0
22.40403468825396 15.71553521554102 0
21.5317258273795 15.20950853716088 0
23.60149604965072 4.090800968975547 0
32.02733345615218 9.109340927362952 0
33.20528881823483 7.963309815441893 0
24.98322745001575 11.57561997752665 0
24.18155511143136 11.38964231213362 0
24.76570894535627 10.86093991204997 0
31.81870047335746 14.93791591733847 0
23.03261595528106 13.30235453656383 0
18.81533568252 5.779884600969166 0
17.99924779636837 5.874058204714965 0
17.55424173121971 5.123685406678382 0
17.23692332007891 5.82533671333911 0
17.59090894500796 7.816527133980036 0
16.75795858203177 5.169732724710743 0
16.40744416359323 5.922754981681522 0
15.91511413890962 5.232923871027612 0
15.54465215478321 6.031438899204831 0
17.0584587531501 8.608018823207068 0
15.0390451572107 5.306154726058446 0
14.66854609420577 6.134652604320184 0
15.2936352012645 6.887348088213509 0
14.32979899780853 6.960032130771094 0
14.87797887866006 7.60188770364059 0
14.02088495680032 7.736489260049475 0
16.78065688422294 9.52187227778089 0
13.4084067866106 7.038586916014676 0
13.06818263704495 7.954530600066344 0
13.79838319394339 8.710934897568515 0
17.06942960464553 11.38584574495327 0
12.73482379258943 8.92539697130081 0
16.75132854282554 10.47329018246196 0
13.39687914506971 9.708417520007638 0
12.3902795876098 9.93196748917199 0
13.10099271626995 10.70174328547639 0
11.78575288182102 9.161015662920827 0
12.01567352897207 10.9702330214731 0
17.32100506016788 11.93537366122817 0
12.8497182236249 11.84753882385932 0
11.58529796828106 12.1043866093296 0
14.10066083811862 5.335187886884591 0
12.47555454659698 13.06526186567767 0
13.73482535673325 12.75707048555491 0
12.36287005348903 7.156412164170878 0
11.18181009858004 13.39834852053901 0
10.24809000712383 12.34391109334857 0
14.16363129557828 10.48070581442917 0
9.807330909508728 13.71648347387246 0
8.851913086948622 12.62933201016095 0
13.33296578540403 13.9979668309872 0
14.50597648209709 13.6204538817941 0
14.84863518238391 12.64263788940251 0
15.61911287486702 13.28023476051887 0
15.27171453029305 14.30030405479766 0
16.2373421771423 14.0202527873137 0
16.01823076782835 14.94615204481694 0
17.02298499064607 14.61995448725512 0
16.74940042964964 15.61296633596343 0
17.71097682967757 15.35005040331418 0
15.62629026800936 7.589962045705708 0
15.32901730075523 8.202132447257201 0
9.338315141544399 11.25037652405411 0
7.891531709858773 11.51519448570157 0
8.41899851482269 10.08526597821391 0
7.385536289272023 12.92764296438828 0
6.9040223931367 10.36792264112748 0
7.459834276104763 8.879326962879016 0
5.872055583221998 9.171730142839992 0
6.432727289049363 7.660512205260575 0
8.044043827271285 7.377128086602255 0
15.70978122678424 12.40168832797688 0
15.07317032485914 15.29220176186918 0
16.88528214577367 6.51006679625389 0
7.025176816922366 6.13944179907506 0
8.638010569503294 5.889898339204063 0
17.49067808032559 16.32647599809396 0
18.52105488043802 15.98497444823928 0
18.61002304616813 14.94213728890434 0
17.04073411819251 13.73315709021711 0
17.77988648149322 12.45876867840894 0
15.97189760796428 8.126263514214273 0
15.7292485425422 8.702199083747011 0
5.332640002824004 10.69296966535986 0
10.75340156986622 14.75369627727001 0
9.4031467246409 15.10443420616715 0
14.47026171958839 4.408716568203356 0
13.37966387171274 4.497650551731321 0
19.44166224735318 15.57014423365323 0
19.62717298845756 14.61441901368642 0
5.34740399344021 6.363995479953656 0
15.20308385313082 11.84341843865907 0
15.99304801179149 11.72755374482712 0
15.50425843255412 11.1953111996612 0
16.41149339085382 12.22847874153712 0
21.45207485884774 14.2665413304087 0
20.49530119575124 13.23453456903123 0
23.36741549000228 16.09744505832156 0
19.54207819476176 5.698473426291423 0
26.73508839248461 15.37159550475893 0
34.88775556725085 8.383001662081666 0
34.4463595805787 6.799806856677109 0
32.77765069886044 6.326330122619502 0
34.24901419673154 4.967483728994498 0
9.742607866833142 7.158786558787547 0
10.04401433660372 5.607263848751712 0
9.1576358735215 4.439688166730538 0
21.61705200290551 5.969583666938996 0
21.00352366202577 5.975843941506911 0
15.10955733914261 8.792911200685328 0
15.51418346965243 9.29777002175511 0
16.26557387426271 7.6325424563731 0
4.31702745262896 9.49389173189622 0
23.75298741895579 11.8891629995433 0
18.93060767227283 14.08605796690567 0
32.43738116677998 4.619808912897478 0
18.32863644061636 17.14678799468926 0
16.12489756687474 11.12154044954985 0
15.81229962615688 10.68155023917486 0
31.16681594742061 5.805226739483963 0
24.02387642121711 10.67782535600216 0
24.55511068640083 10.24356538518252 0
5.927404850125413 4.797569116840787 0
18.22447719666393 14.30771565325037 0
30.69961339116245 4.26218707300293 0
16.27977406613034 8.635082251861531 0
33.38712005709605 15.51660458058938 0
34.73662940262162 14.39534585414982 0
35.03630557734645 16.12031640061172 0
18.46814626902062 6.352745426016929 0
36.12722557294978 7.280398251867116 0
4.331880849905307 5.044712188529549 0
23.59425461984323 12.89719733712037 0
14.87301583592129 9.399139349524903 0
10.89349509089202 4.287862565570077 0
23.97015016763736 10.08118063464436 0
23.15391061326688 9.209986519343 0
24.39297997357004 9.672945545235477 0
23.6661855463407 11.1104827208898 0
22.95250919656358 12.70596585295198 0
23.8426444491654 9.549667607088482 0
24.24207245573645 9.102809847990898 0
24.8536013336488 9.249617534643491 0
24.66966602744379 8.624265568089786 0
24.02034500427149 8.508334605292793 0
25.35676017686762 8.785429058891037 0
21.58852043102053 16.2778090145051 0
4.89486996855262 3.305951841876557 0
22.45588141014429 13.01634626285262 0
18.43838573534385 13.68123488745376 0
21.34857158612029 2.366541256222833 0
22.7034953928492 2.585100347121838 0
16.52779495589626 13.2353221015947 0
17.199906973005 13.08999384659743 0
17.10442635380987 4.431375080180506 0
17.11349046842291 17.51876404528944 0
20.79640729785624 14.8019660786857 0
20.71749254080183 14.05659040809289 0
28.14047320704914 15.99416310980106 0
29.33881120488924 15.11404501132269 0
26.82358875890596 17.03077413015005 0
12.76033409135893 6.197899123689934 0
22.11536079982282 13.91664531544841 0
9.875457259285012 9.942024111219727 0
29.68355240732011 5.441836634535837 0
36.46777790221785 14.94322135404993 0
13.93519991618051 3.292098788538196 0
12.59441583846891 3.47317695776381 0
13.17356005553334 2.198456480312942 0
21.52971013202407 13.59958469810673 0
20.49094087362424 5.14193627851246 0
19.63616434233818 13.91568908548507 0
18.94394814237712 6.354154608073252 0
22.59136090822553 6.25753364780394 0
22.73311578000361 6.882859253149438 0
23.29053561549788 7.132557980643332 0
22.16317429293727 6.712937308280079 0
22.32116184414468 7.224440262143379 0
22.8070031440501 7.368685075308621 0
23.2696909144391 7.69270523565936 0
23.80976452796501 7.458122653729678 0
24.29720221962265 8.01949300824718 0
17.67925780639439 13.44206612914002 0
16.5740683561346 8.15764466806421 0
16.81893382663639 7.686629037416627 0
14.3388659101329 11.95938042687054 0
22.84521354262953 18.35731519526089 0
16.49357530679653 11.4717938392854 0
16.58736283975651 11.08085892627475 0
25.39132300936612 11.07847249889224 0
29.05666691128621 3.964485211835445 0
16.86715439134547 11.92364322083643 0
17.02369468679552 8.057300686103952 0
17.56729914152179 6.452539696990915 0
17.3377774283531 7.03187163221431 0
15.29634370123685 9.880544451158418 0
15.93367188614862 9.777769565831296 0
15.13492107867885 10.52162610985511 0
20.18567429455987 5.816594022410849 0
19.24310334933775 13.55634399945847 0
16.15198950384144 9.201643263150121 0
16.57674534522813 8.980258396512324 0
16.12344760177627 6.610771918501325 0
26.96287328587221 1.639048436923722 0
26.09356266548755 3.073163547242296 0
13.01475861911002 18.35396481040511 0
12.12914700657515 16.84098298682034 0
13.75014784354755 16.91859375223254 0
35.8690219043195 13.25177536719137 0
23.86709557098253 6.880706007728247 0
17.90011000425745 6.972015184872251 0
10.50569979515469 16.37904929345921 0
9.482608508648998 17.71119736653128 0
13.01404541450915 15.46535270773953 0
21.26011876687967 6.362187184818072 0
20.75991191188123 6.443757914959292 0
24.57131885555673 3.25814636783342 0
31.00236949157217 1.594666160718196 0
8.939279648709245 1.551784669599877 0
30.95384386732166 18.40671111637639 0
16.38250558858102 10.68738866468503 0
15.16766069064868 16.62913586841636 0
29.7036617335587 16.80574538339603 0
3.693230489772882 11.052970748563 0
4.799018988429041 12.29604653570703 0
3.138363225758323 12.65588305570863 0
4.243809682237643 13.9431271439835 0
17.71857626065154 7.304014357136983 0
25.53649651080026 16.17865812773424 0
20.79769129966061 15.70838989358715 0
20.57219509954611 16.84073035580992 0
11.66969926190569 6.266931925467875 0
11.17190492784342 7.372427029894373 0
12.23634909950686 5.063598043392278 0
31.84891009086754 16.69463972645454 0
8.988599776652322 8.68329935492031 0
17.6879765395123 12.85399846491158 0
38.41974680372125 11.00040044400754 0
36.86996492762764 10.38868033433201 0
1.636964300341538 9.007070686262434 0
38.18082734760635 7.151797239393582 0
16.72702158637252 9.831310508867711 0
16.42144710526231 9.610077220179948 0
16.39837810757764 10.00719347109853 0
22.81147545026362 8.32201647676138 0
23.15794834500269 8.344888988770537 0
23.30667446953819 8.690468586407603 0
19.39214871683471 16.6146301570056 0
19.57290854963896 17.90387609021142 0
18.59991983945754 7.041717349276375 0
20.80752586941526 6.829673941101458 0
19.19346352946132 13.16910243314198 0
21.39463518146751 7.053578908626456 0
21.68770868787064 6.869077588126151 0
18.60415110488473 12.94950938180422 0
18.32652205754586 13.13085699767263 0
18.02807845943614 7.372925831144054 0
21.39428203912393 12.94757759298326 0
21.67345151309581 13.13080759925107 0
21.95390220735893 7.375518079767909 0
18.04865277107571 12.63460539137979 0
16.91952719032887 8.892528195798519 0
23.26248091927906 10.16040388990378 0
23.588822607162 10.34873125237064 0
18.32935963845085 6.800048218861076 0
31.54566805109824 7.489488820695395 0
30.31776992195711 8.554786206626797 0
30.914266024471 10.19257234870158 0
16.72760435753026 10.15884695730129 0
23.066132276072 11.09940209450342 0
23.29919544169082 11.30652545656999 0
23.2003963382669 11.71088775979655 0
23.29035944993332 12.25485448908157 0
22.62070055713595 8.054420280246532 0
17.36924048915357 12.57949719320127 0
16.8240819844147 12.66890200634788 0
17.53574892722614 12.20581563839753 0
17.19217545055893 11.66640275599869 0
20.16177260227332 13.26975499327271 0
20.38961423156751 13.61719708582951 0
20.7689832898565 13.48845234556969 0
20.173911079883 14.07347059621164 0
19.84246659184812 6.726410541159071 0
19.64724762169027 6.451470557582352 0
20.06676075302613 6.350207017081379 0
19.5229279336487 13.21615853077501 0
20.47707206562857 6.783841469139206 0
34.99923932207574 1.687237727951107 0
36.0000307927036 3.432089191463881 0
4.995237499732019 18.28689288755243 0
6.008929481917975 16.68517032549359 0
4.0237699288066 16.81860762013577 0
19.21138123282815 6.848200059525611 0
23.69444038311367 8.933046061501342 0
35.0502863066938 18.05783397391781 0
16.64528947530508 7.139459431121898 0
23.22544937516589 9.521560211050746 0
1.631600399648871 4.835859422011925 0
21.93682661952673 12.61150839808691 0
22.43134023816105 12.20495965488563 0
23.15391061312405 10.79001348477345 0
10.73732424164278 11.12487168069284 0
25.85020322302389 7.50746436339721 0
27.67058863238167 3.144940268652043 0
27.7964250005555 4.349203218276208 0
7.824263512048566 16.70574103454328 0
6.930978332274845 15.05893915074609 0
3.77884885259015 6.664625180591817 0
8.127600860820584 3.125009779122173 0
17.05478737386026 12.2569517435914 0
19.97511766420501 13.60798395067079 0
10.71104668939196 8.658286020007814 0
23.8830348839491 17.35847776947735 0
33.93828731127773 3.264824774699306 0
35.9384158959699 5.360382253436462 0
22.50997780760658 12.55299832512184 0
38.23237814803718 15.03846744617265 0
18.67657663305484 6.692714116657688 0
12.07623781245214 14.39034470982499 0
14.64727772640994 8.292868883611771 0
34.31598482677634 12.76864125757319 0
37.00592058725211 18.34804026212408 0
17.38849161007364 8.063173369686856 0
5.879779444042167 13.56628217550285 0
38.13872286728944 3.164374422489244 0
1.871448474586223 16.87792662094791 0
26.59666319913151 11.53080549106421 0
22.78336916379063 12.26605718500146 0
4.83913618900058 7.930172978858248 0
17.23797395782 7.755956036084756 0
29.59825590638146 9.768072706181822 0
29.03658019407565 13.67459180991626 0
25.50459030778692 9.517584478670987 0
26.15828114005864 8.95206308781038 0
16.71641006004866 8.605382692320713 0
3.129297306286194 1.771276821408893 0
6.365421471260451 11.89434307796451 0
27.35452614773774 18.55163842375055 0
23.89378997039485 12.42655435049871 0
23.7090519742542 8.014898917502551 0
22.98122213272696 8.034406219106135 0
8.41758986647398 14.14359283177526 0
22.19406891417584 7.584921319318234 0
9.864152052503373 2.988382045839684 0
28.72809862723621 6.495534578265527 0
30.07731738070448 6.811413999009801 0
25.33985266169596 10.34077202801893 0
23.47409193314492 1.458333702334699 0
21.96033672957945 7.077240474204594 0
17.63057682984279 14.10154359728262 0
25.06144287007627 7.960279847012903 0
18.18726274557142 18.51949039026112 0
21.35045814343021 13.22228333176377 0
18.67118773199268 13.30292044782942 0
25.7107335869636 14.56469329550217 0
5.130789966045886 1.58390824593943 0
14.69136575190589 11.20856841959863 0
21.98227818982884 12.9539594628548 0
35.27357126196505 9.960972112667813 0
35.50725266285123 11.62627120863991 0
23.5625327138321 9.984079561894934 0
7.574036135604009 4.637777749196981 0
31.87483581438455 3.054362359595379 0
22.78877547105269 11.67152769578493 0
12.05189256865847 8.152150697579982 0
23.06727158860203 8.909960523406802 0
22.72299419153012 3.795871299465909 0
30.41308880992526 14.19770257193704 0
22.03782663933043 13.35236268437152 0
20.81254274809282 13.16160175639257 0
24.41552747970304 16.07684036570849 0
16.80778855202754 10.79883490280482 0
14.21555105198903 14.7385445770657 0
1.425535837793686 13.00000000000002 0
16.84608938688391 9.20998651537006 0
13.74624365026641 6.170441077261136 0
23.50567326033878 10.73489371014824 0
16.08110906923862 10.31723121345985 0
23.47283490390497 9.311003340344897 0
16.93645453246656 11.09774106011856 0
22.64062225245253 17.0487566553923 0
3.255129342279436 8.271287045372766 0
15.61687365177735 4.244537336363574 0
15.0039070480447 3.347638695653294 0
22.08696712846872 1.479527094667578 0
24.48598687256827 4.438393088139466 0
25.39088398343506 4.031094726728097 0
5.028707564990681 15.26872557597417 0
20.14170402854731 15.17293028547546 0
21.68726756379824 17.35423738869294 0
16.42820333283706 16.63802379934058 0
3.102633583810793 3.902274254316798 0
19.85845690663634 5.21185769208705 0
13.80343394136038 11.25096852811671 0
14.70110931337803 9.970256552816602 0
14.18134309912035 9.492708342439073 0
17.82995152602603 4.475186182909995 0
20.25324317335483 2.22674576006606 0
16.40038280100289 4.566367858909786 0
11.25258903145377 9.964732997581049 0
36.69424346258825 16.59333716777758 0
16.46818513315062 10.32879009780133 0
17.20339317889268 8.334392630225391 0
15.88733310916457 15.8236959620813 0
6.453602238656055 3.177277031145946 0
30.2124795395929 2.878493085274593 0
11.46220018159891 2.818930438358396 0
18.02485926585091 13.04937801907252 0
37.04744755070089 12.09858005201036 0
24.93271301581436 9.80771974653174 0
23.55432355557396 8.387374225474309 0
21.73174264668963 6.464913190705174 0
30.62463446251964 15.55000972208975 0
21.35378929251691 6.731663556694412 0
17.79807293011129 7.600711438205181 0
17.10306975796324 7.433013831275587 0
21.10944398533754 13.75492161072504 0
22.51903495269636 13.53494001777967 0
23.54063611156904 3.168661785839567 0
20.35673704047997 6.490670888574391 0
22.22164519125702 12.71602587491023 0
19.78277302026254 6.084826217731061 0
23.47177015037477 9.641304131934476 0
22.73291189874021 7.757157177310223 0
14.52191543890752 8.937712534765918 0
33.82496678601159 16.98654613213189 0
14.14961791848126 15.77458644250177 0
19.65421664547269 13.51079714240615 0
11.69763765361105 15.61268855586217 0
16.21389702551306 12.73841581113278 0
18.05230391202475 6.565099624127491 0
16.6016976641383 18.65970610572221 0
28.21519000821636 17.37245576308258 0
36.85782289549744 8.563170237459422 0
24.43133435263744 7.361240331309736 0
2.907442730283218 9.819069489309026 0
18.99904538135878 6.665034313878607 0
29.03214370322472 8.832439755733436 0
26.79077233855192 4.047079279068914 0
19.34031051342003 6.15479923901563 0
25.75844935730627 11.71181067623911 0
23.90180325501757 15.39198539823497 0
23.38106613410201 9.002031267327492 0
37.12753981989989 6.088611406144922 0
16.91520500700431 8.352547899984264 0
19.29467950491949 6.543066994862601 0
38.5358983848603 18.53589838485946 0
38.53589838485922 1.464101615139516 0
1.464101615137778 18.53589838486223 0
20.86879803610856 1.091617311228537 0
18.84749445344733 13.59752485668452 0
21.05679615116675 6.660199029589137 0
1.453918529108635 1.453918529109133 0
2.732114430196611 14.03774285094688 0
22.49270129214365 7.550534774848041 0
25.77118929020877 17.37101425625128 0
9.068470479338385 16.26502941720351 0
16.80254717894351 11.33587459468221 0
16.55538564508775 9.304767534598668 0
22.90451990073786 11.94073815734722 0
21.05950039436379 13.37215795291118 0
26.07852914903737 10.8735824418045 0
13.68171085796286 11.95373956610037 0
15.66189693118768 10.20531646618968 0
3.23464162145584 15.31165322987255 0
18.08771782459725 13.44012549216353 0
25.18501268537949 4.864145615221807 0
25.83769231187081 8.265256965980916 0
23.36425173758211 11.00478287199318 0
23.62999154067747 11.49235993075475 0
13.22753918364739 5.405607972654462 0
27.05404677158587 5.12625043693557 0
18.97038724000748 13.33875199622423 0
22.06434321390023 6.191923860183042 0
16.19146350150967 1.906445246401326 0
17.47537410170164 7.551153019540346 0
24.45594474492041 6.734333509615151 0
16.81936613081649 11.60965228871786 0
11.13680197902865 5.41411803929111 0
17.51310547363372 3.703925324610103 0
16.98382716860592 2.806467277036543 0
8.328889782955335 15.45554732808706 0
18.01208307856844 13.79453715185806 0
17.73980130732964 14.67716104463713 0
37.09071609179602 4.576739707337736 0
8.31754333883277 18.66196572946632 0
16.04210752713835 17.57127937009765 0
12.2319711013794 1.288629116215583 0
20.09428024566012 16.09461281295582 0
16.60403743689358 3.788251372873519 0
20.17670122629135 14.62442629639786 0
10.71540646733588 6.474199277784614 0
28.31166875445609 5.456418623705264 0
20.66136004394003 5.633748772835873 0
23.32306402622248 8.077824556898639 0
16.50438250246193 11.83245091863769 0
20.47101778680606 6.153106569783824 0
23.85790845861941 2.440458602140206 0
26.14672243346484 18.26421207790363 0
2.976343512279006 5.482472694264223 0
37.22837084083848 13.84238671347945 0
24.82953191910755 17.00028852253338 0
15.98028263943661 7.180987088665433 0
$EndNodes
$Elements
2 1360 1 1360
1 1 1 20
1 1 7 
2 7 8 
3 8 9 
4 9 10 
5 10 11 
6 11 12 
7 12 13 
8 13 14 
9 14 15 
10 15 16 
11 16 17 
12 17 18 
13 18 19 
14 19 20 
15 20 21 
16 21 22 
17 22 23 
18 23 24 
19 24 25 
20 25 2 
2 1 2 1340
21 324 421 539 
22 364 397 463 
23 478 44 581 
24 430 355 431 
25 541 266 629 
26 241 359 660 
27 396 139 613 
28 142 416 542 
29 266 541 594 
30 333 518 544 
31 518 333 543 
32 13 139 398 
33 440 141 486 
34 319 308 344 
35 423 241 660 
36 268 421 507 
37 312 355 430 
38 393 541 629 
39 328 428 651 
40 541 462 594 
41 133 433 434 
42 163 164 169 
43 246 303 432 
44 161 162 163 
45 142 42 416 
46 319 344 401 
47 365 350 493 
48 496 196 575 
49 392 325 399 
50 493 350 606 
51 432 303 525 
52 523 476 640 
53 214 215 228 
54 127 420 533 
55 588 330 663 
56 511 387 720 
57 435 128 436 
58 406 404 407 
59 170 169 240 
60 466 310 490 
61 436 128 441 
62 219 392 647 
63 334 462 541 
64 139 396 398 
65 128 49 442 
66 309 382 383 
67 458 225 584 
68 536 295 571 
69 460 152 478 
70 159 151 161 
71 283 282 301 
72 152 44 478 
73 505 324 539 
74 362 369 502 
75 359 240 402 
76 172 173 337 
77 215 362 568 
78 133 19 433 
79 525 424 645 
80 240 169 328 
81 580 411 664 
82 303 423 424 
83 295 536 553 
84 236 228 343 
85 403 227 404 
86 426 430 472 
87 350 368 606 
88 350 236 368 
89 164 400 622 
90 468 588 663 
91 362 239 369 
92 221 325 392 
93 172 337 338 
94 310 466 504 
95 565 377 621 
96 205 213 214 
97 166 168 172 
98 163 162 164 
99 628 612 719 
100 377 565 585 
101 136 435 437 
102 388 389 452 
103 228 215 568 
104 325 386 387 
105 403 404 406 
106 48 128 435 
107 241 240 359 
108 164 166 400 
109 413 414 422 
110 214 213 215 
111 277 427 586 
112 369 239 378 
113 450 262 601 
114 301 322 324 
115 388 452 662 
116 627 151 679 
117 139 160 613 
118 344 353 379 
119 161 151 162 
120 477 460 478 
121 344 379 680 
122 401 344 429 
123 376 230 610 
124 239 219 647 
125 219 221 392 
126 495 496 575 
127 217 219 239 
128 13 398 717 
129 303 424 525 
130 215 217 362 
131 281 273 282 
132 301 321 322 
133 612 160 719 
134 322 323 347 
135 501 343 502 
136 413 341 414 
137 319 401 511 
138 136 437 451 
139 221 231 325 
140 285 283 382 
141 141 440 494 
142 303 243 423 
143 322 347 417 
144 417 347 418 
145 382 283 659 
146 44 45 581 
147 441 128 442 
148 291 290 311 
149 318 308 319 
150 163 169 170 
151 312 311 355 
152 543 345 592 
153 421 268 539 
154 309 285 382 
155 169 164 622 
156 203 580 664 
157 410 411 569 
158 442 49 715 
159 281 282 283 
160 232 446 615 
161 426 340 430 
162 287 285 309 
163 235 228 236 
164 309 383 412 
165 166 172 400 
166 173 175 403 
167 524 358 630 
168 338 337 444 
169 243 241 423 
170 175 227 403 
171 240 328 669 
172 203 532 580 
173 172 168 173 
174 397 317 463 
175 203 183 532 
176 370 590 652 
177 398 397 636 
178 343 501 699 
179 126 453 455 
180 501 500 699 
181 424 423 440 
182 230 327 610 
183 311 341 413 
184 237 236 350 
185 397 364 636 
186 227 178 439 
187 521 157 555 
188 163 626 709 
189 439 178 706 
190 433 127 533 
191 340 312 430 
192 351 350 365 
193 534 420 722 
194 254 252 290 
195 456 617 694 
196 383 382 505 
197 302 451 656 
198 359 402 547 
199 325 387 646 
200 329 458 584 
201 402 240 669 
202 175 178 227 
203 217 239 362 
204 15 151 159 
205 43 152 416 
206 435 436 437 
207 127 21 447 
208 370 365 590 
209 252 248 432 
210 11 129 448 
211 283 301 659 
212 347 348 450 
213 404 405 408 
214 173 403 703 
215 521 555 694 
216 254 290 291 
217 307 289 308 
218 170 240 241 
219 301 282 321 
220 408 405 409 
221 248 246 432 
222 420 394 722 
223 374 523 640 
224 393 294 465 
225 202 199 560 
226 277 586 623 
227 192 194 208 
228 465 334 541 
229 355 311 413 
230 246 243 303 
231 420 127 635 
232 425 340 426 
233 291 311 312 
234 369 378 545 
235 126 455 603 
236 238 356 464 
237 160 612 613 
238 136 47 435 
239 418 450 601 
240 215 216 217 
241 428 328 622 
242 398 636 717 
243 431 355 564 
244 585 147 634 
245 412 383 466 
246 205 212 213 
247 407 404 408 
248 214 228 235 
249 551 524 630 
250 344 308 353 
251 133 434 446 
252 148 38 449 
253 192 208 563 
254 20 127 433 
255 355 413 564 
256 15 16 151 
257 43 44 152 
258 310 504 506 
259 294 297 465 
260 518 158 554 
261 322 321 323 
262 437 436 443 
263 464 356 655 
264 311 290 341 
265 333 345 543 
266 360 470 663 
267 325 231 386 
268 387 386 720 
269 457 440 486 
270 270 276 531 
271 148 449 464 
272 18 19 133 
273 46 47 136 
274 13 14 139 
275 41 42 142 
276 617 521 694 
277 265 263 277 
278 236 343 699 
279 287 309 579 
280 196 496 667 
281 338 444 445 
282 160 139 704 
283 404 227 405 
284 145 543 592 
285 502 369 557 
286 412 466 637 
287 324 322 725 
288 443 280 602 
289 282 273 415 
290 267 270 531 
291 424 440 457 
292 164 165 166 
293 348 427 693 
294 200 204 205 
295 331 333 544 
296 360 331 544 
297 408 409 653 
298 367 365 370 
299 419 576 691 
300 395 546 630 
301 125 467 468 
302 125 30 467 
303 427 425 693 
304 416 152 619 
305 400 172 723 
306 406 407 578 
307 495 233 496 
308 429 481 515 
309 374 371 523 
310 199 193 560 
311 472 430 688 
312 427 277 624 
313 194 556 691 
314 208 562 563 
315 253 252 254 
316 377 585 634 
317 259 255 549 
318 217 218 219 
319 581 45 661 
320 449 130 452 
321 546 156 630 
322 166 167 168 
323 347 323 348 
324 280 273 281 
325 284 283 285 
326 407 408 684 
327 20 21 127 
328 48 49 128 
329 39 130 449 
330 11 12 129 
331 39 40 130 
332 448 129 573 
333 476 523 672 
334 353 308 713 
335 251 248 252 
336 59 150 469 
337 502 557 689 
338 354 349 394 
339 280 443 548 
340 297 300 465 
341 300 305 334 
342 392 399 598 
343 469 150 611 
344 14 15 159 
345 42 43 416 
346 518 554 714 
347 268 506 539 
348 308 289 713 
349 452 130 662 
350 300 334 465 
351 445 444 681 
352 272 269 273 
353 399 325 646 
354 235 236 237 
355 161 163 709 
356 14 159 704 
357 151 16 679 
358 553 454 566 
359 234 233 495 
360 205 214 670 
361 139 14 704 
362 273 269 692 
363 451 302 633 
364 426 472 473 
365 237 350 351 
366 19 20 433 
367 277 263 625 
368 22 145 447 
369 147 10 448 
370 207 202 497 
371 417 418 687 
372 445 480 516 
373 434 433 533 
374 429 515 657 
375 497 202 560 
376 446 232 648 
377 290 252 732 
378 349 332 495 
379 159 161 710 
380 307 308 318 
381 146 519 520 
382 334 305 335 
383 252 432 732 
384 47 48 435 
385 153 28 470 
386 178 180 706 
387 373 371 374 
388 451 437 656 
389 37 148 524 
390 576 208 691 
391 226 616 668 
392 424 457 705 
393 332 234 495 
394 450 348 607 
395 295 553 566 
396 185 188 532 
397 145 23 517 
398 146 51 519 
399 511 401 540 
400 126 58 469 
401 29 30 125 
402 57 58 126 
403 496 233 497 
404 345 332 349 
405 587 378 598 
406 194 200 556 
407 425 427 624 
408 422 414 559 
409 211 207 497 
410 401 429 657 
411 21 22 447 
412 10 11 448 
413 337 173 703 
414 276 292 531 
415 29 125 470 
416 542 327 600 
417 354 394 420 
418 215 213 216 
419 430 431 688 
420 173 174 175 
421 31 149 467 
422 188 189 192 
423 409 570 653 
424 362 502 568 
425 418 347 450 
426 531 393 629 
427 180 183 203 
428 292 294 393 
429 470 360 673 
430 205 204 212 
431 127 447 635 
432 411 410 664 
433 426 473 607 
434 150 60 527 
435 564 413 674 
436 624 277 625 
437 336 538 573 
438 148 464 655 
439 188 192 563 
440 185 187 188 
441 589 468 638 
442 183 185 532 
443 412 637 695 
444 562 208 576 
445 387 509 510 
446 501 502 689 
447 494 359 547 
448 535 520 536 
449 200 205 556 
450 9 10 147 
451 37 38 148 
452 368 236 699 
453 22 23 145 
454 50 51 146 
455 286 285 287 
456 535 442 715 
457 411 374 569 
458 506 504 539 
459 172 338 723 
460 345 349 354 
461 225 458 600 
462 17 577 614 
463 38 39 449 
464 146 520 535 
465 30 31 467 
466 470 125 663 
467 324 505 659 
468 517 518 543 
469 517 158 518 
470 251 252 253 
471 233 211 497 
472 444 641 643 
473 519 157 521 
474 31 32 149 
475 59 60 150 
476 175 177 178 
477 413 422 674 
478 36 37 524 
479 292 393 531 
480 24 158 517 
481 52 157 519 
482 58 59 469 
483 520 519 521 
484 393 465 541 
485 17 18 577 
486 491 431 564 
487 351 365 367 
488 23 24 517 
489 51 52 519 
490 224 211 233 
491 57 126 603 
492 147 448 538 
493 61 155 527 
494 509 511 540 
495 449 452 464 
496 297 299 300 
497 149 32 546 
498 60 61 527 
499 28 29 470 
500 164 162 165 
501 329 390 458 
502 55 56 154 
503 27 28 153 
504 45 46 661 
505 192 193 194 
506 505 382 659 
507 180 203 706 
508 61 62 155 
509 33 34 156 
510 641 483 643 
511 588 468 589 
512 272 273 280 
513 300 304 305 
514 436 441 658 
515 24 25 158 
516 52 53 157 
517 335 336 364 
518 330 360 663 
519 219 220 221 
520 217 216 218 
521 276 279 292 
522 9 147 585 
523 281 283 284 
524 261 259 263 
525 216 213 584 
526 371 370 523 
527 533 420 534 
528 648 381 727 
529 509 387 511 
530 178 179 180 
531 339 312 340 
532 349 495 575 
533 242 241 243 
534 145 517 543 
535 514 428 726 
536 18 133 577 
537 33 156 546 
538 438 357 550 
539 394 349 575 
540 395 357 438 
541 12 13 717 
542 258 255 259 
543 400 428 622 
544 333 332 345 
545 636 129 717 
546 146 535 715 
547 327 542 610 
548 538 448 573 
549 428 514 651 
550 331 234 332 
551 259 549 654 
552 40 41 567 
553 358 524 655 
554 454 313 566 
555 221 230 231 
556 586 415 623 
557 210 207 211 
558 616 434 668 
559 152 460 619 
560 453 313 454 
561 245 243 246 
562 292 293 294 
563 97 96 491 
564 35 36 551 
565 582 399 690 
566 300 299 304 
567 466 383 504 
568 224 233 234 
569 319 511 720 
570 26 27 554 
571 54 55 555 
572 247 246 248 
573 447 145 592 
574 414 341 525 
575 223 211 224 
576 188 187 189 
577 166 165 167 
578 94 6 471 
579 527 155 621 
580 154 56 603 
581 292 279 293 
582 105 104 479 
583 361 320 537 
584 36 524 551 
585 208 194 691 
586 610 416 619 
587 107 106 522 
588 462 334 721 
589 150 537 611 
590 173 168 174 
591 331 332 333 
592 188 563 697 
593 363 340 425 
594 130 40 567 
595 455 454 456 
596 264 263 265 
597 66 65 499 
598 367 370 371 
599 210 211 223 
600 120 119 474 
601 284 285 286 
602 87 86 506 
603 298 296 313 
604 225 216 584 
605 103 102 486 
606 466 490 637 
607 537 320 558 
608 209 222 238 
609 520 521 617 
610 70 69 529 
611 32 33 546 
612 112 111 480 
613 553 536 617 
614 109 108 512 
615 342 313 453 
616 49 50 715 
617 46 136 661 
618 238 464 642 
619 288 287 289 
620 358 357 395 
621 468 467 638 
622 335 305 336 
623 212 229 329 
624 352 361 377 
625 496 497 560 
626 428 400 723 
627 343 228 568 
628 330 234 331 
629 41 142 728 
630 294 296 297 
631 330 331 360 
632 373 374 411 
633 645 424 705 
634 27 153 554 
635 55 154 555 
636 399 488 598 
637 250 248 251 
638 224 234 330 
639 356 222 357 
640 81 80 481 
641 294 293 296 
642 194 199 200 
643 473 471 498 
644 453 454 455 
645 356 357 358 
646 615 446 616 
647 209 207 210 
648 78 77 508 
649 192 189 193 
650 270 275 276 
651 352 320 361 
652 175 174 177 
653 304 320 352 
654 297 298 299 
655 206 202 207 
656 200 201 204 
657 291 312 339 
658 281 284 602 
659 238 222 356 
660 276 278 279 
661 298 313 342 
662 379 353 712 
663 405 227 439 
664 329 388 390 
665 253 254 255 
666 649 514 726 
667 174 168 596 
668 262 450 631 
669 293 279 295 
670 297 296 298 
671 385 581 661 
672 178 177 179 
673 278 275 314 
674 209 210 222 
675 562 576 639 
676 304 299 320 
677 456 454 553 
678 7 8 565 
679 388 229 389 
680 338 445 726 
681 206 207 209 
682 567 41 728 
683 364 336 573 
684 315 314 441 
685 269 265 623 
686 453 126 665 
687 538 336 591 
688 410 439 664 
689 201 199 202 
690 565 8 585 
691 201 202 206 
692 155 565 621 
693 364 463 708 
694 321 282 415 
695 322 417 725 
696 210 223 550 
697 276 275 278 
698 258 259 261 
699 329 229 388 
700 170 241 242 
701 267 265 269 
702 270 269 272 
703 446 434 616 
704 278 314 315 
705 461 274 462 
706 432 525 732 
707 263 259 625 
708 437 443 656 
709 306 289 307 
710 180 179 182 
711 219 218 220 
712 261 263 264 
713 389 229 561 
714 357 222 550 
715 194 193 199 
716 574 394 575 
717 452 389 642 
718 34 3 676 
719 3 35 676 
720 270 272 275 
721 438 550 589 
722 547 402 666 
723 313 296 566 
724 314 275 548 
725 2 26 677 
726 25 2 677 
727 4 54 678 
728 53 4 678 
729 414 525 645 
730 409 405 410 
731 129 12 717 
732 445 516 649 
733 209 238 597 
734 222 210 550 
735 365 493 590 
736 464 452 642 
737 224 330 588 
738 409 410 569 
739 463 317 700 
740 287 579 713 
741 200 199 201 
742 444 337 641 
743 62 1 682 
744 1 7 682 
745 320 299 558 
746 491 96 604 
747 532 188 697 
748 272 280 548 
749 180 182 183 
750 212 329 584 
751 299 298 558 
752 376 610 619 
753 204 201 561 
754 523 370 608 
755 150 527 729 
756 245 246 247 
757 443 602 656 
758 391 461 463 
759 212 204 229 
760 286 287 288 
761 670 419 691 
762 381 577 727 
763 165 162 627 
764 328 169 622 
765 247 248 250 
766 298 342 558 
767 242 243 245 
768 425 426 693 
769 318 319 618 
770 104 141 479 
771 309 412 579 
772 524 148 655 
773 556 205 670 
774 8 9 585 
775 591 352 634 
776 267 269 270 
777 264 265 267 
778 336 305 591 
779 261 264 266 
780 254 291 549 
781 275 272 548 
782 527 621 729 
783 296 293 566 
784 189 187 196 
785 95 94 256 
786 403 406 703 
787 121 120 181 
788 295 279 571 
789 237 351 576 
790 213 212 584 
791 96 95 604 
792 255 254 549 
793 536 571 711 
794 201 206 561 
795 106 105 140 
796 75 74 143 
797 113 112 134 
798 82 81 137 
799 229 204 561 
800 265 277 623 
801 104 103 141 
802 73 72 144 
803 115 114 135 
804 84 83 138 
805 98 97 249 
806 5 124 191 
807 185 186 187 
808 293 295 566 
809 279 278 571 
810 525 341 732 
811 257 274 391 
812 471 6 498 
813 153 470 673 
814 223 224 588 
815 284 302 602 
816 537 150 729 
817 538 591 634 
818 417 707 725 
819 507 421 707 
820 504 383 505 
821 187 186 574 
822 304 352 591 
823 552 422 559 
824 114 113 482 
825 106 140 522 
826 339 340 363 
827 348 323 427 
828 74 73 487 
829 83 82 484 
830 267 531 629 
831 154 603 683 
832 305 304 591 
833 685 390 728 
834 483 406 578 
835 196 574 575 
836 379 485 583 
837 90 89 260 
838 467 149 638 
839 100 99 552 
840 345 354 592 
841 93 92 262 
842 67 66 190 
843 91 90 609 
844 92 91 601 
845 550 223 589 
846 504 505 539 
847 86 85 310 
848 116 115 489 
849 118 117 176 
850 85 84 490 
851 462 274 594 
852 378 239 647 
853 6 93 498 
854 196 187 574 
855 68 67 593 
856 474 119 503 
857 88 87 268 
858 232 174 596 
859 69 68 197 
860 117 116 572 
861 79 78 132 
862 110 109 131 
863 122 121 595 
864 250 251 271 
865 369 545 557 
866 389 561 597 
867 334 335 721 
868 56 57 603 
869 235 237 419 
870 278 315 571 
871 108 107 171 
872 89 88 507 
873 429 344 680 
874 231 230 376 
875 119 118 503 
876 124 123 526 
877 126 469 665 
878 561 206 597 
879 707 421 725 
880 101 100 244 
881 72 71 528 
882 372 371 373 
883 221 220 230 
884 391 274 461 
885 598 378 647 
886 406 483 641 
887 378 587 650 
888 301 324 659 
889 168 167 596 
890 111 110 516 
891 480 111 516 
892 86 310 506 
893 536 520 617 
894 123 122 366 
895 183 184 185 
896 167 380 381 
897 573 129 636 
898 249 97 491 
899 63 5 492 
900 80 79 515 
901 390 567 728 
902 359 494 660 
903 637 485 695 
904 162 151 627 
905 486 102 644 
906 280 281 602 
907 76 75 599 
908 77 76 326 
909 256 94 471 
910 502 343 568 
911 71 70 198 
912 206 209 597 
913 185 184 186 
914 386 231 459 
915 291 339 549 
916 231 376 459 
917 140 105 479 
918 434 533 668 
919 456 553 617 
920 108 171 512 
921 481 80 515 
922 99 98 632 
923 257 255 258 
924 489 407 572 
925 95 256 604 
926 65 64 530 
927 407 489 578 
928 289 287 713 
929 181 120 474 
930 372 375 562 
931 555 154 694 
932 167 381 596 
933 316 271 317 
934 396 317 397 
935 69 197 529 
936 480 445 681 
937 223 588 589 
938 499 65 530 
939 64 63 195 
940 364 573 636 
941 141 103 486 
942 183 182 184 
943 163 170 626 
944 548 443 658 
945 134 112 480 
946 307 318 477 
947 335 364 708 
948 257 258 274 
949 288 289 306 
950 171 107 522 
951 190 66 499 
952 190 500 501 
953 125 468 663 
954 113 134 482 
955 316 317 396 
956 143 74 487 
957 82 137 484 
958 459 376 460 
959 218 216 225 
960 135 114 482 
961 73 144 487 
962 268 87 506 
963 441 314 658 
964 137 81 481 
965 138 83 484 
966 177 174 232 
967 496 560 667 
968 537 558 611 
969 380 165 627 
970 438 638 730 
971 592 354 635 
972 683 456 694 
973 488 399 582 
974 253 255 257 
975 406 641 703 
976 306 307 346 
977 473 498 631 
978 399 646 690 
979 441 442 686 
980 131 109 512 
981 77 326 508 
982 410 405 439 
983 121 181 595 
984 723 338 726 
985 115 135 489 
986 190 501 593 
987 84 138 490 
988 181 475 476 
989 306 346 385 
990 284 286 302 
991 377 361 621 
992 184 182 226 
993 242 245 384 
994 198 70 529 
995 638 149 730 
996 509 326 510 
997 250 271 316 
998 535 536 711 
999 321 415 586 
1000 181 476 595 
1001 443 436 658 
1002 102 101 644 
1003 664 439 706 
1004 98 249 632 
1005 510 326 599 
1006 363 425 624 
1007 132 78 508 
1008 258 261 594 
1009 354 420 635 
1010 442 535 686 
1011 261 266 594 
1012 90 260 609 
1013 373 411 580 
1014 144 72 528 
1015 191 124 526 
1016 262 92 601 
1017 367 371 372 
1018 601 91 609 
1019 156 551 630 
1020 232 596 648 
1021 147 538 634 
1022 360 544 673 
1023 93 262 498 
1024 323 321 586 
1025 372 373 375 
1026 257 391 605 
1027 469 611 665 
1028 67 190 593 
1029 149 546 730 
1030 230 220 327 
1031 545 529 557 
1032 421 324 725 
1033 310 85 490 
1034 358 395 630 
1035 472 471 473 
1036 75 143 599 
1037 552 99 632 
1038 560 193 667 
1039 260 89 507 
1040 5 191 492 
1041 116 489 572 
1042 176 117 572 
1043 396 397 398 
1044 197 68 593 
1045 562 375 563 
1046 244 100 552 
1047 479 494 547 
1048 269 623 692 
1049 50 146 715 
1050 118 176 503 
1051 249 491 564 
1052 167 165 380 
1053 88 268 507 
1054 475 474 570 
1055 346 307 477 
1056 479 141 494 
1057 415 273 692 
1058 492 191 590 
1059 16 17 679 
1060 352 377 634 
1061 314 548 658 
1062 251 253 605 
1063 110 131 516 
1064 380 627 679 
1065 247 250 612 
1066 554 153 714 
1067 484 137 583 
1068 603 455 683 
1069 366 122 595 
1070 274 258 594 
1071 577 381 614 
1072 558 342 611 
1073 266 264 629 
1074 79 132 515 
1075 542 416 610 
1076 346 477 478 
1077 123 366 526 
1078 426 607 693 
1079 606 368 698 
1080 474 503 570 
1081 244 552 559 
1082 447 592 635 
1083 271 251 605 
1084 135 482 483 
1085 489 135 578 
1086 264 267 629 
1087 419 237 576 
1088 71 198 528 
1089 35 551 676 
1090 256 471 472 
1091 440 423 660 
1092 512 513 514 
1093 288 306 620 
1094 144 528 587 
1095 101 244 644 
1096 54 555 678 
1097 26 554 677 
1098 363 624 625 
1099 409 569 724 
1100 427 323 586 
1101 533 534 668 
1102 326 76 599 
1103 625 259 654 
1104 143 487 582 
1105 431 491 604 
1106 529 197 557 
1107 487 144 488 
1108 512 171 513 
1109 545 378 650 
1110 138 484 485 
1111 567 390 662 
1112 356 358 655 
1113 417 687 707 
1114 607 473 631 
1115 140 479 547 
1116 195 63 492 
1117 190 499 500 
1118 181 474 475 
1119 526 366 608 
1120 186 701 722 
1121 193 189 667 
1122 375 373 580 
1123 195 492 493 
1124 385 346 581 
1125 155 62 682 
1126 156 34 676 
1127 391 463 700 
1128 271 605 700 
1129 611 342 665 
1130 621 361 729 
1131 198 529 545 
1132 179 177 615 
1133 158 25 677 
1134 157 53 678 
1135 614 380 679 
1136 485 379 695 
1137 64 195 530 
1138 372 562 639 
1139 556 670 691 
1140 500 499 698 
1141 546 395 730 
1142 460 477 718 
1143 387 510 646 
1144 544 518 714 
1145 368 500 698 
1146 597 238 642 
1147 136 451 716 
1148 482 134 643 
1149 253 257 605 
1150 131 512 514 
1151 306 385 620 
1152 576 351 639 
1153 316 396 613 
1154 191 526 652 
1155 498 262 631 
1156 569 374 640 
1157 508 326 509 
1158 170 242 626 
1159 386 459 618 
1160 651 513 669 
1161 381 380 614 
1162 214 235 670 
1163 508 509 540 
1164 346 478 581 
1165 342 453 665 
1166 596 381 648 
1167 133 446 727 
1168 390 388 662 
1169 551 156 676 
1170 612 316 613 
1171 542 600 731 
1172 490 138 637 
1173 530 195 606 
1174 458 390 685 
1175 476 475 640 
1176 250 316 612 
1177 514 513 651 
1178 555 157 678 
1179 554 158 677 
1180 590 191 652 
1181 632 249 674 
1182 132 508 540 
1183 493 492 590 
1184 605 391 700 
1185 135 483 578 
1186 130 567 662 
1187 559 414 645 
1188 460 376 619 
1189 457 486 644 
1190 245 247 628 
1191 579 412 712 
1192 604 256 688 
1193 366 595 672 
1194 438 589 638 
1195 455 456 683 
1196 189 196 667 
1197 540 401 657 
1198 503 176 653 
1199 186 184 701 
1200 644 244 705 
1201 450 607 631 
1202 389 597 642 
1203 177 232 615 
1204 422 552 632 
1205 599 143 690 
1206 488 144 587 
1207 565 155 682 
1208 142 542 731 
1209 395 438 730 
1210 483 482 643 
1211 153 673 714 
1212 286 288 633 
1213 485 484 583 
1214 235 419 670 
1215 494 440 660 
1216 571 315 711 
1217 351 367 639 
1218 522 666 675 
1219 341 290 732 
1220 242 384 626 
1221 226 182 696 
1222 7 565 682 
1223 526 608 652 
1224 666 402 675 
1225 487 488 582 
1226 315 441 686 
1227 580 532 697 
1228 195 493 606 
1229 384 245 628 
1230 488 587 598 
1231 602 302 656 
1232 577 133 727 
1233 247 612 628 
1234 218 225 671 
1235 412 695 712 
1236 138 485 637 
1237 402 669 675 
1238 361 537 729 
1239 701 534 722 
1240 363 625 654 
1241 327 220 671 
1242 288 620 633 
1243 302 286 633 
1244 673 544 714 
1245 220 218 671 
1246 615 616 696 
1247 339 363 654 
1248 516 131 649 
1249 317 271 700 
1250 225 600 671 
1251 528 198 650 
1252 428 723 726 
1253 587 528 650 
1254 549 339 654 
1255 563 375 697 
1256 500 368 699 
1257 609 260 687 
1258 570 503 653 
1259 160 704 710 
1260 640 475 724 
1261 515 132 657 
1262 182 179 696 
1263 559 645 705 
1264 418 601 609 
1265 176 572 684 
1266 134 480 681 
1267 367 372 639 
1268 477 318 718 
1269 653 176 684 
1270 522 140 666 
1271 461 462 721 
1272 600 327 671 
1273 249 564 674 
1274 459 460 718 
1275 463 461 708 
1276 318 618 718 
1277 618 459 718 
1278 574 186 722 
1279 179 615 696 
1280 595 476 672 
1281 618 319 720 
1282 226 668 701 
1283 557 197 689 
1284 198 545 650 
1285 646 510 690 
1286 256 472 688 
1287 499 530 698 
1288 708 461 721 
1289 608 370 652 
1290 608 366 672 
1291 386 618 720 
1292 704 159 710 
1293 643 134 681 
1294 392 598 647 
1295 583 137 702 
1296 569 640 724 
1297 616 226 696 
1298 394 574 722 
1299 131 514 649 
1300 572 407 684 
1301 171 522 675 
1302 687 260 707 
1303 137 481 702 
1304 669 513 675 
1305 481 429 702 
1306 530 606 698 
1307 197 593 689 
1308 418 609 687 
1309 620 451 633 
1310 475 570 724 
1311 431 604 688 
1312 260 507 707 
1313 184 226 701 
1314 140 547 666 
1315 143 582 690 
1316 607 348 693 
1317 510 599 690 
1318 422 632 674 
1319 132 540 657 
1320 710 709 719 
1321 457 644 705 
1322 623 415 692 
1323 17 614 679 
1324 513 171 675 
1325 570 409 724 
1326 579 353 713 
1327 244 559 705 
1328 328 651 669 
1329 315 686 711 
1330 203 664 706 
1331 668 534 701 
1332 335 708 721 
1333 375 580 697 
1334 445 649 726 
1335 385 661 716 
1336 600 458 731 
1337 379 583 680 
1338 451 620 716 
1339 353 579 712 
1340 709 384 719 
1341 620 385 716 
1342 661 136 716 
1343 384 628 719 
1344 593 501 689 
1345 685 142 731 
1346 686 535 711 
1347 626 384 709 
1348 154 683 694 
1349 523 608 672 
1350 408 653 684 
1351 160 710 719 
1352 446 648 727 
1353 458 685 731 
1354 695 379 712 
1355 641 337 703 
1356 680 583 702 
1357 161 709 710 
1358 142 685 728 
1359 444 643 681 
1360 429 680 702 
$EndElements
